<svg width="23" height="23" viewBox="0 0 23 23" fill="none" xmlns="http://www.w3.org/2000/svg">
<path d="M9.73964 22.312C7.3131 21.9909 5.05833 20.8845 3.31966 19.1617C1.58099 17.4388 0.453988 15.1942 0.110769 12.7707C-0.232451 10.3472 0.226974 7.87799 1.41888 5.74011C2.61079 3.60223 4.46967 1.91321 6.71164 0.931C6.95724 0.83407 7.23088 0.836261 7.4749 0.937103C7.71893 1.03795 7.91428 1.22955 8.0198 1.47159C8.12533 1.71362 8.13278 1.98716 8.04061 2.23459C7.94843 2.48201 7.7638 2.68401 7.52564 2.798C6.15187 3.39422 4.94517 4.31804 4.01116 5.48865C3.07714 6.65926 2.44428 8.04096 2.16797 9.51282C1.89165 10.9847 1.9803 12.5018 2.42615 13.9315C2.872 15.3611 3.66147 16.6598 4.72546 17.7136C5.78945 18.7675 7.09553 19.5445 8.52939 19.9767C9.96325 20.4089 11.4812 20.483 12.9503 20.1926C14.4195 19.9022 15.7951 19.2562 16.9567 18.311C18.1183 17.3659 19.0306 16.1504 19.6136 14.771C19.7189 14.5226 19.9186 14.3262 20.1687 14.2251C20.4187 14.1239 20.6988 14.1262 20.9471 14.2315C21.1955 14.3368 21.3919 14.5364 21.4931 14.7865C21.5942 15.0366 21.5919 15.3166 21.4866 15.565C20.5382 17.8212 18.875 19.7035 16.7527 20.9225C14.6304 22.1415 12.1664 22.6296 9.73964 22.312ZM11.1876 12.224C11.054 12.2239 10.9216 12.1974 10.7981 12.1461C10.6747 12.0948 10.5625 12.0197 10.4681 11.9251C10.3737 11.8305 10.2988 11.7182 10.2478 11.5946C10.1967 11.4711 10.1705 11.3387 10.1706 11.205V1.01898C10.1705 0.885296 10.1967 0.752893 10.2478 0.629333C10.2988 0.505774 10.3737 0.393482 10.4681 0.298859C10.5625 0.204236 10.6747 0.129131 10.7981 0.0778503C10.9216 0.0265698 11.054 0.000131257 11.1876 0C12.6578 0.00118132 14.1134 0.291945 15.4712 0.855713C16.829 1.41948 18.0624 2.2452 19.1011 3.28571C20.1397 4.32621 20.9632 5.56112 21.5246 6.91992C22.0859 8.27872 22.3741 9.7348 22.3726 11.205C22.3728 11.3387 22.3466 11.4711 22.2955 11.5946C22.2445 11.7182 22.1696 11.8305 22.0752 11.9251C21.9807 12.0197 21.8686 12.0948 21.7451 12.1461C21.6217 12.1974 21.4893 12.2239 21.3556 12.224H11.1876ZM12.2046 10.186H20.2826C20.0533 8.12096 19.1289 6.19518 17.6611 4.72464C16.1933 3.2541 14.2693 2.32612 12.2046 2.09299V10.186Z" fill="#373A48"/>
</svg>
