<svg width="22" height="18" viewBox="0 0 22 18" fill="none" xmlns="http://www.w3.org/2000/svg">
<path d="M3 18.0002C2.20435 18.0002 1.44129 17.6841 0.878681 17.1215C0.316072 16.5589 0 15.7958 0 15.0002V10.0002C0 9.99116 0 9.98316 0 9.97416C0 9.95749 0 9.94083 0 9.92417C0 9.90717 1.06823e-06 9.89014 0.00500107 9.87314V9.85013V9.83017V9.82218V9.80619V9.79514V9.78214V9.76719V9.75815V9.74015V9.73514L0.0110016 9.71415C0.0222257 9.6774 0.0355788 9.64137 0.0509987 9.60618L3.521 1.79715C3.75693 1.25809 4.14618 0.800326 4.6403 0.480809C5.13442 0.161291 5.7116 -0.00586391 6.3 0.000157114H15.7C16.2812 -0.000325781 16.85 0.16801 17.3373 0.484715C17.8246 0.801421 18.2094 1.25286 18.445 1.78415L21.901 9.56315C21.9666 9.69945 22.0005 9.84888 22 10.0002V15.0002C22 15.7958 21.6839 16.5589 21.1213 17.1215C20.5587 17.6841 19.7956 18.0002 19 18.0002H3ZM2 15.0002C2 15.2654 2.10536 15.5197 2.29289 15.7072C2.48043 15.8948 2.73478 16.0002 3 16.0002H19C19.2652 16.0002 19.5196 15.8948 19.7071 15.7072C19.8946 15.5197 20 15.2654 20 15.0002V11.0002H15.535L13.835 13.5552C13.7434 13.6925 13.6192 13.805 13.4735 13.8827C13.3278 13.9603 13.1651 14.0007 13 14.0002H9C8.83524 14.0003 8.67298 13.9598 8.52766 13.8822C8.38233 13.8045 8.25844 13.6922 8.167 13.5552L6.465 11.0002H2V15.0002ZM7 9.00016C7.16459 9.00013 7.32665 9.04076 7.47178 9.11838C7.61692 9.19601 7.74065 9.30825 7.832 9.44516L9.532 11.9992H12.462L14.162 9.44516C14.2539 9.3074 14.3786 9.19459 14.5249 9.11692C14.6711 9.03925 14.8344 8.99914 15 9.00016H19.462L16.617 2.60013C16.5392 2.42188 16.4111 2.27018 16.2484 2.16361C16.0857 2.05704 15.8955 2.00026 15.701 2.00016H6.3C6.10568 2.00045 5.91566 2.05736 5.75316 2.16391C5.59066 2.27047 5.46273 2.42204 5.385 2.60013L2.539 9.00016H7Z" fill="#373A48"/>
</svg>
